HIERARCHY
ROOT hip
{
  OFFSET 0 0 0
  CHANNELS 6 Xposition Yposition Zposition Zrotation Yrotation Xrotation
  JOINT abdomen
  {
    OFFSET 0 20.6881 -0.73152
    CHANNELS 3 Zrotation Xrotation Yrotation
    JOINT chest
    {
      OFFSET 0 11.7043 -0.48768
      CHANNELS 3 Zrotation Xrotation Yrotation
      JOINT neck
      {
        OFFSET 0 22.1894 -2.19456
        CHANNELS 3 Zrotation Xrotation Yrotation
        JOINT head
        {
          OFFSET -0.24384 7.07133 1.2192
          CHANNELS 3 Zrotation Xrotation Yrotation
          JOINT leftEye
          {
            OFFSET 4.14528 8.04674 8.04672
            CHANNELS 3 Zrotation Xrotation Yrotation
            End Site
            {
              OFFSET 1 0 0
            }
          }
          JOINT rightEye
          {
            OFFSET -3.6576 8.04674 8.04672
            CHANNELS 3 Zrotation Xrotation Yrotation
            End Site
            {
              OFFSET 1 0 0
            }
          }
        }
      }
      JOINT rCollar
      {
        OFFSET -2.68224 19.2634 -4.8768
        CHANNELS 3 Zrotation Xrotation Yrotation
        JOINT rShldr
        {
          OFFSET -8.77824 -1.95073 1.46304
          CHANNELS 3 Zrotation Xrotation Yrotation
          JOINT rForeArm
          {
            OFFSET -28.1742 -1.7115 0.48768
            CHANNELS 3 Zrotation Xrotation Yrotation
            JOINT rHand
            {
              OFFSET -22.5879 0.773209 7.07136
              CHANNELS 3 Zrotation Xrotation Yrotation
              JOINT rThumb1
              {
                OFFSET -1.2192 -0.487915 3.41376
                CHANNELS 3 Zrotation Xrotation Yrotation
                JOINT rThumb2
                {
                  OFFSET -3.37035 -0.52449 3.41376
                  CHANNELS 3 Zrotation Xrotation Yrotation
                  End Site
                  {
                    OFFSET -1.78271 -1.18214 1.43049
                  }
                }
              }
              JOINT rIndex1
              {
                OFFSET -7.75947 0.938293 5.60832
                CHANNELS 3 Zrotation Xrotation Yrotation
                JOINT rIndex2
                {
                  OFFSET -2.54057 -0.884171 1.56538
                  CHANNELS 3 Zrotation Xrotation Yrotation
                  End Site
                  {
                    OFFSET -1.62519 -0.234802 1.16502
                  }
                }
              }
              JOINT rMid1
              {
                OFFSET -8.24714 1.18213 3.41376
                CHANNELS 3 Zrotation Xrotation Yrotation
                JOINT rMid2
                {
                  OFFSET -3.10165 -0.590103 1.0647
                  CHANNELS 3 Zrotation Xrotation Yrotation
                  End Site
                  {
                    OFFSET -2.48547 -0.328903 0.83742
                  }
                }
              }
              JOINT rRing1
              {
                OFFSET -8.82822 0.546677 1.51678
                CHANNELS 3 Zrotation Xrotation Yrotation
                JOINT rRing2
                {
                  OFFSET -2.60934 -0.819778 -0.0198488
                  CHANNELS 3 Zrotation Xrotation Yrotation
                  End Site
                  {
                    OFFSET -2.33842 -0.294052 0.168128
                  }
                }
              }
              JOINT rPinky1
              {
                OFFSET -8.27202 -0.0477905 -0.4584
                CHANNELS 3 Zrotation Xrotation Yrotation
                JOINT rPinky2
                {
                  OFFSET -1.82734 -0.647385 -0.700984
                  CHANNELS 3 Zrotation Xrotation Yrotation
                  End Site
                  {
                    OFFSET -1.69225 -0.51767 -0.607171
                  }
                }
              }
            }
          }
        }
      }
      JOINT lCollar
      {
        OFFSET 2.68224 19.2634 -4.8768
        CHANNELS 3 Zrotation Xrotation Yrotation
        JOINT lShldr
        {
          OFFSET 8.77824 -1.95073 1.46304
          CHANNELS 3 Zrotation Xrotation Yrotation
          JOINT lForeArm
          {
            OFFSET 28.1742 -1.7115 0.48768
            CHANNELS 3 Zrotation Xrotation Yrotation
            JOINT lHand
            {
              OFFSET 22.5879 0.773209 7.07136
              CHANNELS 3 Zrotation Xrotation Yrotation
              JOINT lThumb1
              {
                OFFSET 1.2192 -0.487915 3.41376
                CHANNELS 3 Zrotation Xrotation Yrotation
                JOINT lThumb2
                {
                  OFFSET 3.37035 -0.52449 3.41376
                  CHANNELS 3 Zrotation Xrotation Yrotation
                  End Site
                  {
                    OFFSET 1.78271 -1.18214 1.43049
                  }
                }
              }
              JOINT lIndex1
              {
                OFFSET 7.75947 0.938293 5.60832
                CHANNELS 3 Zrotation Xrotation Yrotation
                JOINT lIndex2
                {
                  OFFSET 2.54057 -0.884171 1.56538
                  CHANNELS 3 Zrotation Xrotation Yrotation
                  End Site
                  {
                    OFFSET 1.62519 -0.234802 1.16502
                  }
                }
              }
              JOINT lMid1
              {
                OFFSET 8.24714 1.18213 3.41376
                CHANNELS 3 Zrotation Xrotation Yrotation
                JOINT lMid2
                {
                  OFFSET 3.10165 -0.590103 1.0647
                  CHANNELS 3 Zrotation Xrotation Yrotation
                  End Site
                  {
                    OFFSET 2.48547 -0.328903 0.83742
                  }
                }
              }
              JOINT lRing1
              {
                OFFSET 8.82822 0.546677 1.51678
                CHANNELS 3 Zrotation Xrotation Yrotation
                JOINT lRing2
                {
                  OFFSET 2.60934 -0.819778 -0.0198488
                  CHANNELS 3 Zrotation Xrotation Yrotation
                  End Site
                  {
                    OFFSET 2.33842 -0.294052 0.168128
                  }
                }
              }
              JOINT lPinky1
              {
                OFFSET 8.27202 -0.0477905 -0.4584
                CHANNELS 3 Zrotation Xrotation Yrotation
                JOINT lPinky2
                {
                  OFFSET 1.82734 -0.647385 -0.700984
                  CHANNELS 3 Zrotation Xrotation Yrotation
                  End Site
                  {
                    OFFSET 1.69225 -0.51767 -0.607171
                  }
                }
              }
            }
          }
        }
      }
    }
  }
  JOINT rButtock
  {
    OFFSET -8.77824 4.35084 1.2192
    CHANNELS 3 Zrotation Xrotation Yrotation
    JOINT rThigh
    {
      OFFSET 0 -1.70687 -2.19456
      CHANNELS 3 Zrotation Xrotation Yrotation
      JOINT rShin
      {
        OFFSET 0 -36.8199 0.73152
        CHANNELS 3 Zrotation Xrotation Yrotation
        JOINT rFoot
        {
          OFFSET 0.73152 -45.1104 -5.12064
          CHANNELS 3 Zrotation Xrotation Yrotation
          End Site
          {
            OFFSET -1.1221 -3.69964 12.103
          }
        }
      }
    }
  }
  JOINT lButtock
  {
    OFFSET 8.77824 4.35084 1.2192
    CHANNELS 3 Zrotation Xrotation Yrotation
    JOINT lThigh
    {
      OFFSET 0 -1.70687 -2.19456
      CHANNELS 3 Zrotation Xrotation Yrotation
      JOINT lShin
      {
        OFFSET 0 -36.8199 0.73152
        CHANNELS 3 Zrotation Xrotation Yrotation
        JOINT lFoot
        {
          OFFSET -0.73152 -45.1104 -5.12064
          CHANNELS 3 Zrotation Xrotation Yrotation
          End Site
          {
            OFFSET 1.1221 -3.69964 12.103
          }
        }
      }
    }
  }
}
MOTION
Frames:	4
Frame Time:	0.03333
0.0108181182295084 3.570920467376709 -0.021298112347722054 0.5576426535844803 -7.491599544882774 -8.63024890422821 8.774599358439445 11.235366538167 11.050816476345062 5.67755788564682 -7.140446752309799 0.7022428885102272 -4.820244424045086 8.49881261587143 3.758365921676159 3.578679710626602 -3.5949017107486725 -7.238140180706978 -9.61564153432846 -6.807386130094528 3.696666732430458 7.421593889594078 -5.663195997476578 -3.70892945677042 -1.5792015194892883 5.410918816924095 -7.406411245465279 4.035362005233765 8.709446489810944 -4.581639468669891 -8.105936050415039 -8.95655170083046 9.743603020906448 -10.867452621459961 0.3219985216856003 7.0630355179309845 -4.7832319512963295 -2.6306787505745888 4.304992072284222 -8.020716905593872 11.586555540561676 -6.602614223957062 3.9674370735883713 -1.3146213814616203 1.6845962405204773 6.116996929049492 6.214039251208305 4.27380234003067 -3.5256993770599365 -0.3603376401588321 3.2850877940654755 -3.470209166407585 -0.7629141211509705 4.0408045426011086 -1.1965444218367338 -0.5171694606542587 0.6872543692588806 1.7803296446800232 -0.5754018947482109 -1.8760818243026733 -7.675846517086029 -0.04299044609069824 4.128205329179764 2.135353535413742 -5.125639736652374 -4.057274982333183 2.8187240660190582 11.448043584823608 -3.2700275257229805 -13.860410302877426 8.494032248854637 -11.8125718832016 12.408195286989212 -5.764929503202438 -18.635005205869675 -7.324434220790863 -0.5141707509756088 -8.101505041122437 -1.1040716618299484 -0.1899187546223402 2.0858386158943176 3.0801529437303543 -4.7035277634859085 1.4549736678600311 1.599162518978119 4.824551045894623 1.3581589981913567 3.2117964327335358 0.2892259508371353 0.44054235331714153 -4.72488921135664 -7.7851612865924835 -2.958838641643524 -6.7507439106702805 3.5092581063508987 2.781222425401211 -2.8141046315431595 -0.5579008162021637 -3.8505376875400543 -0.6161962822079659 -7.360248416662216 4.3492216989398 -4.963976293802261 8.28427143394947 -4.241679534316063 2.2940806299448013 4.655571207404137 -6.4364030957221985 -0.5883770808577538 -10.883401036262512 1.9605516269803047 -6.962177753448486 -8.909364938735962 -16.93750351667404 8.210110366344452 18.48372057080269 4.6753910556435585 -4.241721443831921 -1.7137374356389046 8.528582453727722 1.5895665809512138 -2.7113867551088333 5.03138892352581 9.584832340478897 -8.294027298688889 3.126976266503334 11.93416714668274 13.267816454172134 -15.940844267606735 1.7924760282039642 -10.817869305610657 5.115912035107613
-0.014312546700239182 38.86237716674805 0.008730059489607811 -59.738507866859436 -22.90259689092636 5.506417527794838 -10.63472606241703 12.409596741199493 17.43826389312744 -11.256756484508514 -10.233936309814453 2.8237760066986084 1.242356300354004 29.308412075042725 -8.090177401900291 9.794738665223122 -31.61155253648758 1.7050212621688843 0.00982627272605896 5.2620019018650055 -2.5689882785081863 5.612287670373917 11.427399963140488 3.4794242307543755 1.948942020535469 -6.033260375261307 2.751534730195999 42.66554743051529 34.52040821313858 6.782331615686417 -24.295773804187775 -21.284221708774567 73.6698317527771 -6.181571111083031 -24.080950319767 1.370597742497921 1.5718566253781319 2.9630031064152718 -4.4543565809726715 7.92337954044342 -9.270203858613968 -4.480580538511276 -5.28438962996006 2.001056671142578 2.1368086338043213 8.264215216040611 6.056475564837456 0.013146847486495972 -2.832226976752281 1.4894375391304493 -13.3634814620018 1.4519152790307999 9.20211061835289 -7.717716470360756 3.5194743052124977 -0.2599288523197174 -2.7920548617839813 18.75818833708763 -2.4308354035019875 -2.5068361312150955 4.478470645844936 -4.457606077194214 -1.697070524096489 5.9015049040317535 2.345345690846443 -1.3492540642619133 -2.8270194679498672 -5.877618491649628 -2.1678823605179787 -53.08836758136749 37.74361073970795 -29.974627196788788 22.50103533267975 -15.141174495220184 -53.50699603557587 11.702354550361633 -16.218963861465454 -1.7287930101156235 4.907503053545952 5.653628557920456 -2.359289489686489 -6.158336475491524 3.0129944533109665 -4.638909995555878 1.9526156410574913 1.8113460391759872 4.195180423557758 -27.822417318820953 7.652640715241432 -4.41833920776844 4.831850342452526 -0.9897545725107193 1.4685697853565216 3.8357506692409515 1.8342641741037369 0.5692224204540253 -10.188946947455406 -0.42301252484321594 -0.872165858745575 -16.405102461576462 4.825430475175381 -12.44083508849144 7.363990768790245 -5.030147731304169 -4.470026716589928 -7.04838864505291 7.134407088160515 2.4118175357580185 -0.2896728739142418 2.736828178167343 -0.9085232019424438 -48.37233066558838 -42.35077142715454 -42.66789436340332 -22.16565191745758 62.15995252132416 29.075253009796143 4.271179810166359 8.970197439193726 -15.754075348377228 3.7321198359131813 7.995079681277275 2.4873244017362595 30.226658284664154 -42.40670621395111 31.011545062065125 19.169970452785492 70.36514639854431 -26.53002440929413 8.588465452194214 -26.403861343860626 14.256689250469208
-0.1019633375108242 59.655696868896484 0.04525155387818813 -53.83193492889404 -34.629638493061066 -7.166199311614037 -8.127515092492104 16.27187043428421 4.602360874414444 3.551000654697418 -15.194542407989502 2.5126464664936066 -5.065280646085739 24.404926300048828 -8.69994007050991 8.286028280854225 -28.411848843097687 -10.500800013542175 -1.5979354083538055 2.308490127325058 0.29971741139888763 -3.7061570584774017 4.94173139333725 -1.5333347395062447 -1.6494157165288925 0.4679492488503456 -1.3303421437740326 47.40923523902893 29.007824957370758 20.2969528734684 -23.62237572669983 -22.505369782447815 75.62284469604492 -8.197674974799156 -25.24484932422638 2.415994070470333 -0.18088649958372116 1.077369935810566 -3.564203828573227 -0.2508951723575592 1.1030732095241547 2.77348056435585 -1.538121309131384 2.6285192370414734 -2.3667383193969727 9.794914349913597 8.913006708025932 -1.1231763660907745 -1.7697932571172714 -0.8903121761977673 -3.6035913974046707 2.52457894384861 4.44016769528389 -0.8598259370774031 5.207924880087376 0.5832423269748688 -1.6579900681972504 13.252597600221634 -0.18330518156290054 3.1441759318113327 2.573823295533657 0.9293478727340698 -1.8147873133420944 2.0045140385627747 -2.966887280344963 -2.020023576915264 -1.3925685547292233 -0.6412383913993835 -2.349044121801853 -47.57983982563019 40.08040487766266 -38.71078580617905 24.859249591827393 -27.485100030899048 -61.092808842659 6.485004723072052 -15.648350715637207 3.2126111537218094 3.035331889986992 0.9387447405606508 1.2063091713935137 -3.49275179207325 4.9978237599134445 -2.800467610359192 0.00921841710805893 2.4478959292173386 0.8542101457715034 -13.04451584815979 3.983164206147194 -2.658560648560524 2.538328282535076 -0.6696396321058273 -2.2295473515987396 -1.3536156713962555 -5.014059171080589 1.9230566918849945 -3.797360882163048 1.6417251527309418 -0.8089408278465271 -10.359478443861008 -1.417056955397129 -2.2656555846333504 -1.1667240411043167 -0.819953978061676 2.955392673611641 0.02472527325153351 -1.9161654263734818 2.5476982444524765 1.2797359004616737 -3.5668565332889557 1.1546346545219421 -42.06564724445343 -39.555504620075226 -37.38372266292572 -23.698341250419617 64.47246730327606 22.006295174360275 -6.208572909235954 -4.930141568183899 2.549039348959923 -2.5589102134108543 -1.0765481740236282 -0.623866394162178 29.288856089115143 -33.163089752197266 38.5492604970932 11.448260843753815 64.89864349365234 -15.843186378479004 3.0935710296034813 -12.823016345500946 27.09962099790573
-0.19147030636668205 61.80046463012695 0.07283828221261501 -52.721516489982605 -33.37630659341812 -8.953784331679344 -5.871954336762428 15.874216854572296 2.181498259305954 3.662022650241852 -11.973566114902496 0.7879538834095001 -4.690192490816116 19.495636224746704 -10.169243440032005 10.936898365616798 -29.46555733680725 -11.062036156654358 -0.47414079308509827 0.7345323264598846 0.3653993457555771 -0.774824470281601 1.0251671075820923 -0.22780705243349075 -0.2683302015066147 0.05546305328607559 -0.23616179823875427 47.02571153640747 27.661071717739105 22.491139322519302 -23.715040683746338 -23.980606198310852 74.03618931770325 -7.4977632611989975 -22.48268634080887 -1.0690537467598915 0.58962631970644 0.38773108273744583 -0.8502455055713654 -0.13593032956123352 0.11122182011604309 0.9517081081867218 -0.5200513266026974 0.49866288900375366 -0.48241138458251953 8.37111733853817 6.230202242732048 0.12237712740898132 -0.4378833621740341 -0.011491714976727962 -0.5936003476381302 2.7229712158441544 1.7547480762004852 0.12098816223442554 1.1645699758082628 0.05942836403846741 -0.2714864909648895 11.929783076047897 0.6548314914107323 0.9029274433851242 0.665925107896328 0.25946348905563354 0.27037806808948517 2.307414561510086 -1.1315696686506271 -0.6112657114863396 -0.37134697660803795 -0.07798522710800171 -0.40772024542093277 -48.98173928260803 36.961897015571594 -40.27275413274765 26.80537462234497 -27.99786865711212 -60.60691058635712 7.334696352481842 -12.420451641082764 5.31299002468586 0.749896690249443 0.08864541538059711 0.23851719684898853 -0.7669837027788162 0.9204313717782497 -0.573086142539978 0.03582056611776352 0.3578006476163864 0.18185008317232132 -8.492192924022675 5.347609296441078 -1.077618459239602 0.6369746848940849 0.11562265455722809 -1.014377921819687 -2.6291562616825104 -0.5022188276052475 0.3491552174091339 -0.6029143184423447 0.2399785816669464 -0.18936127424240112 -10.068383663892746 0.30866023153066635 -0.320329915266484 -0.03800220787525177 0.005924999713897705 0.7469355314970016 -1.998019739985466 -1.0463304072618484 0.765402540564537 0.4330429807305336 -0.7210864126682281 0.3665238618850708 -40.35472512245178 -39.08314883708954 -36.15021765232086 -24.08003032207489 66.98966145515442 24.98900681734085 -3.8512223213911057 -7.93350487947464 1.1951353400945663 -0.8925503119826317 -0.405164435505867 -0.2312660962343216 32.96167999505997 -34.520190954208374 36.93931818008423 10.647221133112907 62.916362285614014 -15.923035740852356 3.1963345035910606 -13.81120651960373 25.923729836940765
